<?xml version="1.0" encoding="UTF-8"?>
<svg xmlns="http://www.w3.org/2000/svg" width="214.000" height="113.000" viewBox="234.000 262.000 214.000 113.000" version="1.1" shape-rendering="geometricPrecision">
  <desc>Produce by Acme CAD Converter</desc>
<path d="M261.65 336.26L261.65 310.07Z"
fill="none" stroke="RGB(205,32,39)" stroke-width="0.5"/>
<path d="M261.65 310.07L279.11 336.26"
fill="none" stroke="RGB(205,32,39)" stroke-width="0.5"/>
<path d="M279.11 336.26L279.11 310.07Z"
fill="none" stroke="RGB(205,32,39)" stroke-width="0.5"/>
<path d="M297.82 310.07L297.82 336.26Z"
fill="none" stroke="RGB(205,32,39)" stroke-width="0.5"/>
<path d="M289.09 310.07L306.56 310.07"
fill="none" stroke="RGB(205,32,39)" stroke-width="0.5"/>
<path d="M311.55 336.26L311.55 310.07Z"
fill="none" stroke="RGB(205,32,39)" stroke-width="0.5"/>
<path d="M311.55 310.07L327.76 310.07"
fill="none" stroke="RGB(205,32,39)" stroke-width="0.5"/>
<path d="M311.55 322.54L321.52 322.54"
fill="none" stroke="RGB(205,32,39)" stroke-width="0.5"/>
<path d="M311.55 336.26L327.76 336.26"
fill="none" stroke="RGB(205,32,39)" stroke-width="0.5"/>
<path d="M335.24 336.26L335.24 310.07Z"
fill="none" stroke="RGB(205,32,39)" stroke-width="0.5"/>
<path d="M335.24 310.07L346.47 310.07"
fill="none" stroke="RGB(205,32,39)" stroke-width="0.5"/>
<path d="M346.47 310.07L350.21 311.32"
fill="none" stroke="RGB(205,32,39)" stroke-width="0.5"/>
<path d="M350.21 311.32L351.46 312.56"
fill="none" stroke="RGB(205,32,39)" stroke-width="0.5"/>
<path d="M351.46 312.56L352.71 315.06"
fill="none" stroke="RGB(205,32,39)" stroke-width="0.5"/>
<path d="M352.71 315.06L352.71 317.55Z"
fill="none" stroke="RGB(205,32,39)" stroke-width="0.5"/>
<path d="M352.71 317.55L351.46 320.05"
fill="none" stroke="RGB(205,32,39)" stroke-width="0.5"/>
<path d="M351.46 320.05L350.21 321.3"
fill="none" stroke="RGB(205,32,39)" stroke-width="0.5"/>
<path d="M350.21 321.3L346.47 322.54"
fill="none" stroke="RGB(205,32,39)" stroke-width="0.5"/>
<path d="M346.47 322.54L335.24 322.54"
fill="none" stroke="RGB(205,32,39)" stroke-width="0.5"/>
<path d="M343.98 322.54L352.71 336.26"
fill="none" stroke="RGB(205,32,39)" stroke-width="0.5"/>
<path d="M365.47 337.53L365.47 311.33Z"
fill="none" stroke="#000000" stroke-width="1"/>
<path d="M365.47 311.33L375.45 337.53"
fill="none" stroke="#000000" stroke-width="1"/>
<path d="M375.45 337.53L385.43 311.33"
fill="none" stroke="#000000" stroke-width="1"/>
<path d="M385.43 311.33L385.43 337.53Z"
fill="none" stroke="#000000" stroke-width="1"/>
<path d="M395.41 337.53L405.39 311.33"
fill="none" stroke="#000000" stroke-width="1"/>
<path d="M405.39 311.33L415.37 337.53"
fill="none" stroke="#000000" stroke-width="1"/>
<path d="M399.15 328.8L411.63 328.8"
fill="none" stroke="#000000" stroke-width="1"/>
<path d="M422.85 337.53L440.31 311.33"
fill="none" stroke="#000000" stroke-width="1"/>
<path d="M422.85 311.33L440.31 337.53"
fill="none" stroke="#000000" stroke-width="1"/>
<path d="M241.09 357.78L257.54 359 241.09 301.57 241.09 357.78Z"
fill="RGB(205,32,39)" stroke="RGB(205,32,39)" stroke-width="0.2"/>
<path d="M257.54 359L257.54 301.57 241.09 301.57 257.54 359Z"
fill="RGB(205,32,39)" stroke="RGB(205,32,39)" stroke-width="0.2"/>
<path d="M263.54 359.45L367.3 367.17 263.54 355.9 263.54 359.45Z"
fill="RGB(205,32,39)" stroke="RGB(205,32,39)" stroke-width="0.2"/>
<path d="M367.3 367.17L367.3 364.05 263.54 355.9 367.3 367.17Z"
fill="RGB(205,32,39)" stroke="RGB(205,32,39)" stroke-width="0.2"/>
<path d="M367.3 364.05L372.3 367.54 367.3 345.95 367.3 364.05Z"
fill="RGB(205,32,39)" stroke="RGB(205,32,39)" stroke-width="0.2"/>
<path d="M372.3 367.54L372.3 345.95 367.3 345.95 372.3 367.54Z"
fill="RGB(205,32,39)" stroke="RGB(205,32,39)" stroke-width="0.2"/>
<path d="M367.3 367.17L372.3 367.54 367.3 364.05 367.3 367.17Z"
fill="RGB(205,32,39)" stroke="RGB(205,32,39)" stroke-width="0.2"/>
<path d="M257.54 301.17L257.54 359Z"
fill="none" stroke="RGB(205,32,39)" stroke-width="0.5"/>
<path d="M241.09 357.78L241.09 318.49Z"
fill="none" stroke="RGB(205,32,39)" stroke-width="0.5"/>
<path d="M241.09 318.49L241.09 301.57Z"
fill="none" stroke="RGB(205,32,39)" stroke-width="0.5"/>
<path d="M257.54 301.57L257.54 302.43Z"
fill="none" stroke="RGB(205,32,39)" stroke-width="0.5"/>
<path d="M241.09 357.78L257.54 359"
fill="none" stroke="RGB(205,32,39)" stroke-width="0.5"/>
<path d="M263.54 359.45L372.3 367.54"
fill="none" stroke="RGB(205,32,39)" stroke-width="0.5"/>
<path d="M372.3 367.54L372.3 345.95Z"
fill="none" stroke="RGB(205,32,39)" stroke-width="0.5"/>
<path d="M367.3 345.95L367.3 362.8Z"
fill="none" stroke="RGB(205,32,39)" stroke-width="0.5"/>
<path d="M372.3 345.95L367.3 345.95"
fill="none" stroke="RGB(205,32,39)" stroke-width="0.5"/>
<path d="M263.54 359L263.54 355.9Z"
fill="none" stroke="RGB(205,32,39)" stroke-width="0.5"/>
<path d="M263.54 355.9L367.3 364.05"
fill="none" stroke="RGB(205,32,39)" stroke-width="0.5"/>
<path d="M263.54 359L263.54 359.45Z"
fill="none" stroke="RGB(205,32,39)" stroke-width="0.5"/>
<path d="M367.3 362.8L367.3 364.05Z"
fill="none" stroke="RGB(205,32,39)" stroke-width="0.5"/>
<path d="M241.09 301.57L257.54 301.57"
fill="none" stroke="RGB(205,32,39)" stroke-width="0.5"/>
<path d="M241.09 295.46L257.54 295.46 241.09 284.84 241.09 295.46Z"
fill="#000000" stroke="#000000" stroke-width="0.45"/>
<path d="M257.54 286.93L257.54 282.94 241.09 284.84 257.54 286.93Z"
fill="#000000" stroke="#000000" stroke-width="0.45"/>
<path d="M257.54 286.93L367.3 274.84 257.54 282.94 257.54 286.93Z"
fill="#000000" stroke="#000000" stroke-width="0.45"/>
<path d="M367.3 274.84L367.3 270.23 257.54 282.94 367.3 274.84Z"
fill="#000000" stroke="#000000" stroke-width="0.45"/>
<path d="M367.3 274.84L373.5 304.93 367.3 270.23 367.3 274.84Z"
fill="#000000" stroke="#000000" stroke-width="0.45"/>
<path d="M373.5 304.93L373.5 269.52 367.3 270.23 373.5 304.93Z"
fill="#000000" stroke="#000000" stroke-width="0.45"/>
<path d="M257.54 295.46L257.54 286.93 241.09 284.84 257.54 295.46Z"
fill="#000000" stroke="#000000" stroke-width="0.45"/>
<path d="M367.3 304.93L373.5 304.93 367.3 274.84 367.3 304.93Z"
fill="#000000" stroke="#000000" stroke-width="0.45"/>
<path d="M241.09 295.46L257.54 295.46"
fill="none" stroke="#000000" stroke-width="1"/>
<path d="M241.09 295.46L241.09 289Z"
fill="none" stroke="#000000" stroke-width="1"/>
<path d="M257.54 289L257.54 295.46Z"
fill="none" stroke="#000000" stroke-width="1"/>
<path d="M257.54 295.46L257.54 289Z"
fill="none" stroke="#000000" stroke-width="1"/>
<path d="M241.09 289L241.09 284.84Z"
fill="none" stroke="#000000" stroke-width="1"/>
<path d="M241.09 284.84L373.5 269.52"
fill="none" stroke="#000000" stroke-width="1"/>
<path d="M373.5 269.52L373.5 304.93Z"
fill="none" stroke="#000000" stroke-width="1"/>
<path d="M373.5 304.93L367.3 304.93"
fill="none" stroke="#000000" stroke-width="1"/>
<path d="M367.3 304.93L367.3 274.84Z"
fill="none" stroke="#000000" stroke-width="1"/>
<path d="M257.54 289L257.54 286.93Z"
fill="none" stroke="#000000" stroke-width="1"/>
<path d="M367.3 274.84L257.54 286.93"
fill="none" stroke="#000000" stroke-width="1"/>
</svg>
